@startuml

    
    class EncodingModule {
        + void encodeWithFiles() throws IOException
        + void encodeBasedOnNetworkAndDatabase() throws IOException
    }

    class EncodingModuleClient {
        + void main(String[] args) throws IOException
    }

    class MyDatabase {
        + int write(String inputString)
        - static Map<Integer, String> _data
        - static int _count
    }

    EncodingModuleClient --> EncodingModule : "use"
    EncodingModule --> MyDatabase : "write"



@enduml
